<svg width="24" height="23" viewBox="0 0 24 23" fill="none" xmlns="http://www.w3.org/2000/svg">
<path d="M6.00351 20.875H2.0007C1.7353 20.875 1.48077 20.7762 1.2931 20.6004C1.10543 20.4246 1 20.1861 1 19.9375V14.3125C1 14.0639 1.10543 13.8254 1.2931 13.6496C1.48077 13.4738 1.7353 13.375 2.0007 13.375H6.00351C6.26891 13.375 6.52345 13.4738 6.71111 13.6496C6.89878 13.8254 7.00421 14.0639 7.00421 14.3125V19.9375C7.00421 20.1861 6.89878 20.4246 6.71111 20.6004C6.52345 20.7762 6.26891 20.875 6.00351 20.875Z" fill="#1C1B56"/>
<path d="M14.0074 20.875H10.0046C9.73921 20.875 9.48467 20.7762 9.29701 20.6004C9.10934 20.4246 9.00391 20.1861 9.00391 19.9375V8.6875C9.00391 8.43886 9.10934 8.2004 9.29701 8.02459C9.48467 7.84877 9.73921 7.75 10.0046 7.75H14.0074C14.2728 7.75 14.5274 7.84877 14.715 8.02459C14.9027 8.2004 15.0081 8.43886 15.0081 8.6875V19.9375C15.0081 20.1861 14.9027 20.4246 14.715 20.6004C14.5274 20.7762 14.2728 20.875 14.0074 20.875Z" fill="#1C1B56"/>
<path d="M22.0123 20.875H18.0095C17.7441 20.875 17.4896 20.7762 17.3019 20.6004C17.1142 20.4246 17.0088 20.1861 17.0088 19.9375V1.1875C17.0088 0.93886 17.1142 0.700403 17.3019 0.524587C17.4896 0.348772 17.7441 0.25 18.0095 0.25H22.0123C22.2777 0.25 22.5322 0.348772 22.7199 0.524587C22.9076 0.700403 23.013 0.93886 23.013 1.1875V19.9375C23.013 20.1861 22.9076 20.4246 22.7199 20.6004C22.5322 20.7762 22.2777 20.875 22.0123 20.875Z" fill="#A5A3AA"/>
</svg>
